# xmcd
#
# Track frame offsets: 
#        150
#        11739
#        27162
#        36451
#        48105
#        59241
#        70809
#        86383
#        108587
#        120875
#        138839
#        160281
#
# Disc length: 2437 seconds
#
# Revision: 0
# Processed by: cddbd v1.5.2PL0 Copyright (c) Steve Scherf et al.
# Submitted via: ExactAudioCopy v1.3
#
DISCID=9c09830c
DTITLE=Ween - !2 Golden Country Greats Demos
DYEAR=1900
DGENRE=Country
TTITLE0=I Don't Wanna Leave You on the Farm
TTITLE1=Piss Up a Rope
TTITLE2=Mister Richard Smoker
TTITLE3=Help Me Scrape the Mucus Off My Brain
TTITLE4=Pretty Girl
TTITLE5=Fluffy
TTITLE6=Powder Blue
TTITLE7=I Got No Darkside
TTITLE8=You Were the Fool
TTITLE9=I'm Holding You
TTITLE10=So Long Jerry
TTITLE11=I Got No Darkside (Studio)
EXTD=
EXTT0=
EXTT1=
EXTT2=
EXTT3=
EXTT4=
EXTT5=
EXTT6=
EXTT7=
EXTT8=
EXTT9=
EXTT10=
EXTT11=
PLAYORDER=
